<?xml version="1.0" encoding="UTF-8" standalone="no"?>
<!DOCTYPE svg PUBLIC "-//W3C//DTD SVG 1.1//EN"
 "http://www.w3.org/Graphics/SVG/1.1/DTD/svg11.dtd">
<!-- Generated by graphviz version 2.40.1 (20161225.0304)
 -->
<!-- Title: dependencies Pages: 1 -->
<svg width="1818pt" height="284pt"
 viewBox="0.00 0.00 1818.00 284.00" xmlns="http://www.w3.org/2000/svg" xmlns:xlink="http://www.w3.org/1999/xlink">
<g id="graph0" class="graph" transform="scale(1 1) rotate(0) translate(4 280)">
<title>dependencies</title>
<polygon fill="#ffffff" stroke="transparent" points="-4,4 -4,-280 1814,-280 1814,4 -4,4"/>
<text text-anchor="start" x="884.0091" y="-42.4" font-family="sans-serif" font-weight="bold" font-size="14.00" fill="#000000">Legend</text>
<polygon fill="#ffffb3" stroke="transparent" points="671,-10 671,-30 691,-30 691,-10 671,-10"/>
<text text-anchor="start" x="694.629" y="-15.4" font-family="sans-serif" font-size="14.00" fill="#000000"> &#160;Declarations</text>
<polygon fill="#8dd3c7" stroke="transparent" points="784,-10 784,-30 804,-30 804,-10 784,-10"/>
<text text-anchor="start" x="807.7251" y="-15.4" font-family="sans-serif" font-size="14.00" fill="#000000"> &#160;Module</text>
<polygon fill="#80b1d3" stroke="transparent" points="870,-10 870,-30 890,-30 890,-10 870,-10"/>
<text text-anchor="start" x="893.7812" y="-15.4" font-family="sans-serif" font-size="14.00" fill="#000000"> &#160;Bootstrap</text>
<polygon fill="#fdb462" stroke="transparent" points="967,-10 967,-30 987,-30 987,-10 967,-10"/>
<text text-anchor="start" x="990.6732" y="-15.4" font-family="sans-serif" font-size="14.00" fill="#000000"> &#160;Providers</text>
<polygon fill="#fb8072" stroke="transparent" points="1063,-10 1063,-30 1083,-30 1083,-10 1063,-10"/>
<text text-anchor="start" x="1086.7258" y="-15.4" font-family="sans-serif" font-size="14.00" fill="#000000"> &#160;Exports</text>
<g id="clust1" class="cluster">
<title>cluster_AppModule</title>
<polygon fill="none" stroke="#000000" stroke-dasharray="1,5" points="8,-70 8,-268 1802,-268 1802,-70 8,-70"/>
</g>
<g id="clust2" class="cluster">
<title>cluster_AppModule_declarations</title>
<polygon fill="none" stroke="#000000" points="502,-78 502,-130 1794,-130 1794,-78 502,-78"/>
</g>
<g id="clust17" class="cluster">
<title>cluster_AppModule_bootstrap</title>
<polygon fill="none" stroke="#000000" points="949,-208 949,-260 1037,-260 1037,-208 949,-208"/>
</g>
<g id="clust18" class="cluster">
<title>cluster_AppModule_providers</title>
<polygon fill="none" stroke="#000000" points="16,-78 16,-130 494,-130 494,-78 16,-78"/>
</g>
<!-- AddLoyaltyCardPage -->
<g id="node1" class="node">
<title>AddLoyaltyCardPage</title>
<polygon fill="#ffffb3" stroke="#000000" points="1786.0786,-122 1647.9214,-122 1647.9214,-86 1786.0786,-86 1786.0786,-122"/>
<text text-anchor="middle" x="1717" y="-99.8" font-family="Times,serif" font-size="14.00" fill="#000000">AddLoyaltyCardPage</text>
</g>
<!-- AppModule -->
<g id="node13" class="node">
<title>AppModule</title>
<polygon fill="#8dd3c7" stroke="#000000" points="1034.6571,-187 1031.6571,-191 1010.6571,-191 1007.6571,-187 951.3429,-187 951.3429,-151 1034.6571,-151 1034.6571,-187"/>
<text text-anchor="middle" x="993" y="-164.8" font-family="Times,serif" font-size="14.00" fill="#000000">AppModule</text>
</g>
<!-- AddLoyaltyCardPage&#45;&gt;AppModule -->
<g id="edge1" class="edge">
<title>AddLoyaltyCardPage&#45;&gt;AppModule</title>
<path fill="none" stroke="#000000" d="M1717,-122.3228C1717,-145.6602 1717,-183 1717,-183 1717,-183 1044.7899,-183 1044.7899,-183"/>
<polygon fill="#000000" stroke="#000000" points="1044.7899,-179.5001 1034.7899,-183 1044.7898,-186.5001 1044.7899,-179.5001"/>
</g>
<!-- FlashCardComponent -->
<g id="node2" class="node">
<title>FlashCardComponent</title>
<polygon fill="#ffffb3" stroke="#000000" points="1630.3767,-122 1491.6233,-122 1491.6233,-86 1630.3767,-86 1630.3767,-122"/>
<text text-anchor="middle" x="1561" y="-99.8" font-family="Times,serif" font-size="14.00" fill="#000000">FlashCardComponent</text>
</g>
<!-- FlashCardComponent&#45;&gt;AppModule -->
<g id="edge2" class="edge">
<title>FlashCardComponent&#45;&gt;AppModule</title>
<path fill="none" stroke="#000000" d="M1561,-122.2921C1561,-144.2057 1561,-178 1561,-178 1561,-178 1044.7664,-178 1044.7664,-178"/>
<polygon fill="#000000" stroke="#000000" points="1044.7664,-174.5001 1034.7664,-178 1044.7664,-181.5001 1044.7664,-174.5001"/>
</g>
<!-- HomePage -->
<g id="node3" class="node">
<title>HomePage</title>
<polygon fill="#ffffb3" stroke="#000000" points="1473.9248,-122 1396.0752,-122 1396.0752,-86 1473.9248,-86 1473.9248,-122"/>
<text text-anchor="middle" x="1435" y="-99.8" font-family="Times,serif" font-size="14.00" fill="#000000">HomePage</text>
</g>
<!-- HomePage&#45;&gt;AppModule -->
<g id="edge3" class="edge">
<title>HomePage&#45;&gt;AppModule</title>
<path fill="none" stroke="#000000" d="M1435,-122.0267C1435,-142.7672 1435,-174 1435,-174 1435,-174 1044.9808,-174 1044.9808,-174"/>
<polygon fill="#000000" stroke="#000000" points="1044.9808,-170.5001 1034.9808,-174 1044.9807,-177.5001 1044.9808,-170.5001"/>
</g>
<!-- ListPage -->
<g id="node4" class="node">
<title>ListPage</title>
<polygon fill="#ffffb3" stroke="#000000" points="1378.4902,-122 1313.5098,-122 1313.5098,-86 1378.4902,-86 1378.4902,-122"/>
<text text-anchor="middle" x="1346" y="-99.8" font-family="Times,serif" font-size="14.00" fill="#000000">ListPage</text>
</g>
<!-- ListPage&#45;&gt;AppModule -->
<g id="edge4" class="edge">
<title>ListPage&#45;&gt;AppModule</title>
<path fill="none" stroke="#000000" d="M1346,-122.1061C1346,-141.3391 1346,-169 1346,-169 1346,-169 1044.8799,-169 1044.8799,-169"/>
<polygon fill="#000000" stroke="#000000" points="1044.88,-165.5001 1034.8799,-169 1044.8799,-172.5001 1044.88,-165.5001"/>
</g>
<!-- LoginPage -->
<g id="node5" class="node">
<title>LoginPage</title>
<polygon fill="#ffffb3" stroke="#000000" points="1295.1558,-122 1218.8442,-122 1218.8442,-86 1295.1558,-86 1295.1558,-122"/>
<text text-anchor="middle" x="1257" y="-99.8" font-family="Times,serif" font-size="14.00" fill="#000000">LoginPage</text>
</g>
<!-- LoginPage&#45;&gt;AppModule -->
<g id="edge5" class="edge">
<title>LoginPage&#45;&gt;AppModule</title>
<path fill="none" stroke="#000000" d="M1257,-122.302C1257,-140.2699 1257,-165 1257,-165 1257,-165 1044.8316,-165 1044.8316,-165"/>
<polygon fill="#000000" stroke="#000000" points="1044.8316,-161.5001 1034.8316,-165 1044.8315,-168.5001 1044.8316,-161.5001"/>
</g>
<!-- MapPage -->
<g id="node6" class="node">
<title>MapPage</title>
<polygon fill="#ffffb3" stroke="#000000" points="1200.3711,-122 1131.6289,-122 1131.6289,-86 1200.3711,-86 1200.3711,-122"/>
<text text-anchor="middle" x="1166" y="-99.8" font-family="Times,serif" font-size="14.00" fill="#000000">MapPage</text>
</g>
<!-- MapPage&#45;&gt;AppModule -->
<g id="edge6" class="edge">
<title>MapPage&#45;&gt;AppModule</title>
<path fill="none" stroke="#000000" d="M1166,-122.027C1166,-138.3976 1166,-160 1166,-160 1166,-160 1044.8785,-160 1044.8785,-160"/>
<polygon fill="#000000" stroke="#000000" points="1044.8785,-156.5001 1034.8785,-160 1044.8784,-163.5001 1044.8785,-156.5001"/>
</g>
<!-- MyApp -->
<g id="node7" class="node">
<title>MyApp</title>
<polygon fill="#ffffb3" stroke="#000000" points="1113.5529,-122 1054.4471,-122 1054.4471,-86 1113.5529,-86 1113.5529,-122"/>
<text text-anchor="middle" x="1084" y="-99.8" font-family="Times,serif" font-size="14.00" fill="#000000">MyApp</text>
</g>
<!-- MyApp&#45;&gt;AppModule -->
<g id="edge7" class="edge">
<title>MyApp&#45;&gt;AppModule</title>
<path fill="none" stroke="#000000" d="M1084,-122.1871C1084,-137.1824 1084,-156 1084,-156 1084,-156 1044.7713,-156 1044.7713,-156"/>
<polygon fill="#000000" stroke="#000000" points="1044.7713,-152.5001 1034.7713,-156 1044.7713,-159.5001 1044.7713,-152.5001"/>
</g>
<!-- ProductPage -->
<g id="node8" class="node">
<title>ProductPage</title>
<polygon fill="#ffffb3" stroke="#000000" points="1036.2605,-122 949.7395,-122 949.7395,-86 1036.2605,-86 1036.2605,-122"/>
<text text-anchor="middle" x="993" y="-99.8" font-family="Times,serif" font-size="14.00" fill="#000000">ProductPage</text>
</g>
<!-- ProductPage&#45;&gt;AppModule -->
<g id="edge8" class="edge">
<title>ProductPage&#45;&gt;AppModule</title>
<path fill="none" stroke="#000000" d="M993,-122.1061C993,-122.1061 993,-140.991 993,-140.991"/>
<polygon fill="#000000" stroke="#000000" points="989.5001,-140.9909 993,-150.991 996.5001,-140.991 989.5001,-140.9909"/>
</g>
<!-- ProfilePage -->
<g id="node9" class="node">
<title>ProfilePage</title>
<polygon fill="#ffffb3" stroke="#000000" points="931.812,-122 850.188,-122 850.188,-86 931.812,-86 931.812,-122"/>
<text text-anchor="middle" x="891" y="-99.8" font-family="Times,serif" font-size="14.00" fill="#000000">ProfilePage</text>
</g>
<!-- ProfilePage&#45;&gt;AppModule -->
<g id="edge9" class="edge">
<title>ProfilePage&#45;&gt;AppModule</title>
<path fill="none" stroke="#000000" d="M891,-122.1871C891,-137.1824 891,-156 891,-156 891,-156 941.2184,-156 941.2184,-156"/>
<polygon fill="#000000" stroke="#000000" points="941.2184,-159.5001 951.2184,-156 941.2184,-152.5001 941.2184,-159.5001"/>
</g>
<!-- ResetPasswordPage -->
<g id="node10" class="node">
<title>ResetPasswordPage</title>
<polygon fill="#ffffb3" stroke="#000000" points="831.9664,-122 704.0336,-122 704.0336,-86 831.9664,-86 831.9664,-122"/>
<text text-anchor="middle" x="768" y="-99.8" font-family="Times,serif" font-size="14.00" fill="#000000">ResetPasswordPage</text>
</g>
<!-- ResetPasswordPage&#45;&gt;AppModule -->
<g id="edge10" class="edge">
<title>ResetPasswordPage&#45;&gt;AppModule</title>
<path fill="none" stroke="#000000" d="M768,-122.027C768,-138.3976 768,-160 768,-160 768,-160 941.2065,-160 941.2065,-160"/>
<polygon fill="#000000" stroke="#000000" points="941.2066,-163.5001 951.2065,-160 941.2065,-156.5001 941.2066,-163.5001"/>
</g>
<!-- ShopPage -->
<g id="node11" class="node">
<title>ShopPage</title>
<polygon fill="#ffffb3" stroke="#000000" points="685.9944,-122 614.0056,-122 614.0056,-86 685.9944,-86 685.9944,-122"/>
<text text-anchor="middle" x="650" y="-99.8" font-family="Times,serif" font-size="14.00" fill="#000000">ShopPage</text>
</g>
<!-- ShopPage&#45;&gt;AppModule -->
<g id="edge11" class="edge">
<title>ShopPage&#45;&gt;AppModule</title>
<path fill="none" stroke="#000000" d="M650,-122.302C650,-140.2699 650,-165 650,-165 650,-165 941.2844,-165 941.2844,-165"/>
<polygon fill="#000000" stroke="#000000" points="941.2844,-168.5001 951.2844,-165 941.2843,-161.5001 941.2844,-168.5001"/>
</g>
<!-- SignUpPage -->
<g id="node12" class="node">
<title>SignUpPage</title>
<polygon fill="#ffffb3" stroke="#000000" points="595.9916,-122 510.0084,-122 510.0084,-86 595.9916,-86 595.9916,-122"/>
<text text-anchor="middle" x="553" y="-99.8" font-family="Times,serif" font-size="14.00" fill="#000000">SignUpPage</text>
</g>
<!-- SignUpPage&#45;&gt;AppModule -->
<g id="edge12" class="edge">
<title>SignUpPage&#45;&gt;AppModule</title>
<path fill="none" stroke="#000000" d="M553,-122.1061C553,-141.3391 553,-169 553,-169 553,-169 941.2092,-169 941.2092,-169"/>
<polygon fill="#000000" stroke="#000000" points="941.2092,-172.5001 951.2092,-169 941.2092,-165.5001 941.2092,-172.5001"/>
</g>
<!-- IonicApp  -->
<g id="node14" class="node">
<title>IonicApp </title>
<polygon fill="#80b1d3" stroke="#000000" points="1029.3734,-252 956.6266,-252 956.6266,-216 1029.3734,-216 1029.3734,-252"/>
<text text-anchor="middle" x="993" y="-229.8" font-family="Times,serif" font-size="14.00" fill="#000000">IonicApp </text>
</g>
<!-- AppModule&#45;&gt;IonicApp  -->
<g id="edge13" class="edge">
<title>AppModule&#45;&gt;IonicApp </title>
<path fill="none" stroke="#000000" stroke-dasharray="1,5" d="M993,-187.1061C993,-187.1061 993,-205.991 993,-205.991"/>
<polygon fill="#000000" stroke="#000000" points="989.5001,-205.9909 993,-215.991 996.5001,-205.991 989.5001,-205.9909"/>
</g>
<!-- AuthProvider -->
<g id="node15" class="node">
<title>AuthProvider</title>
<ellipse fill="#fdb462" stroke="#000000" cx="422" cy="-104" rx="63.7045" ry="18"/>
<text text-anchor="middle" x="422" y="-99.8" font-family="Times,serif" font-size="14.00" fill="#000000">AuthProvider</text>
</g>
<!-- AuthProvider&#45;&gt;AppModule -->
<g id="edge14" class="edge">
<title>AuthProvider&#45;&gt;AppModule</title>
<path fill="none" stroke="#000000" d="M422,-122.0267C422,-142.7672 422,-174 422,-174 422,-174 941.013,-174 941.013,-174"/>
<polygon fill="#000000" stroke="#000000" points="941.013,-177.5001 951.013,-174 941.013,-170.5001 941.013,-177.5001"/>
</g>
<!-- ProfileProvider -->
<g id="node16" class="node">
<title>ProfileProvider</title>
<ellipse fill="#fdb462" stroke="#000000" cx="270" cy="-104" rx="70.6413" ry="18"/>
<text text-anchor="middle" x="270" y="-99.8" font-family="Times,serif" font-size="14.00" fill="#000000">ProfileProvider</text>
</g>
<!-- ProfileProvider&#45;&gt;AppModule -->
<g id="edge15" class="edge">
<title>ProfileProvider&#45;&gt;AppModule</title>
<path fill="none" stroke="#000000" d="M270,-122.2921C270,-144.2057 270,-178 270,-178 270,-178 941.2679,-178 941.2679,-178"/>
<polygon fill="#000000" stroke="#000000" points="941.2679,-181.5001 951.2679,-178 941.2678,-174.5001 941.2679,-181.5001"/>
</g>
<!-- ShopApiProvider -->
<g id="node17" class="node">
<title>ShopApiProvider</title>
<ellipse fill="#fdb462" stroke="#000000" cx="103" cy="-104" rx="78.755" ry="18"/>
<text text-anchor="middle" x="103" y="-99.8" font-family="Times,serif" font-size="14.00" fill="#000000">ShopApiProvider</text>
</g>
<!-- ShopApiProvider&#45;&gt;AppModule -->
<g id="edge16" class="edge">
<title>ShopApiProvider&#45;&gt;AppModule</title>
<path fill="none" stroke="#000000" d="M103,-122.3228C103,-145.6602 103,-183 103,-183 103,-183 941.2672,-183 941.2672,-183"/>
<polygon fill="#000000" stroke="#000000" points="941.2672,-186.5001 951.2672,-183 941.2671,-179.5001 941.2672,-186.5001"/>
</g>
</g>
</svg>
